<?xml version="1.0" encoding="utf-8"?>
<!-- Generator: Adobe Illustrator 28.3.0, SVG Export Plug-In . SVG Version: 6.00 Build 0)  -->
<svg version="1.1" id="圖層_2" xmlns="http://www.w3.org/2000/svg" xmlns:xlink="http://www.w3.org/1999/xlink" x="0px" y="0px"
	 viewBox="0 0 32 32" style="enable-background:new 0 0 32 32;" xml:space="preserve">
<style type="text/css">
	.st0{fill:#FDE257;}
	.st1{fill:#5A812B;}
	.st2{fill:#FFB339;}
	.st3{fill:#FFF1B6;}
</style>
<rect class="st0" width="32" height="32"/>
<g>
	<path class="st1" d="M15.67,15.38c-0.08-0.01-0.16-0.03-0.24-0.06c-0.1-0.04-0.19-0.11-0.27-0.17c-0.08-0.06-0.17-0.13-0.24-0.19
		c-0.13-0.11-0.25-0.24-0.35-0.37c-0.09-0.11-0.17-0.22-0.26-0.34c-0.06-0.08-0.12-0.17-0.17-0.26c-0.1-0.08-0.21-0.16-0.31-0.24
		c0.01,0,0.01,0.01,0.02,0.01c-0.05-0.04-0.09-0.07-0.14-0.11c0,0,0,0,0,0c-0.01-0.01-0.01-0.01-0.02-0.02c0,0,0,0,0,0c0,0,0,0,0,0
		c0,0,0,0,0,0c-1.45-0.98-2.76-1.45-2.76-1.45c0,0-0.01,0-0.01,0l0,0c0,0-0.01,0-0.01-0.01c0,0,0,0-0.01,0c0,0-0.12-0.05-0.13-0.05
		l0,0c-0.14-0.06-0.27-0.11-0.41-0.17c0.01,0,0.02,0.01,0.02,0.01c-0.11-0.05-0.22-0.09-0.33-0.14c-0.23-0.1-0.48-0.16-0.44-0.38
		c0.04-0.21,0.42-0.27,0.63-0.29c0.47-0.06,0.94-0.01,1.41,0.04c0.29,0.04,0.59,0.08,0.87,0.14c0.13,0.03,0.26,0.06,0.39,0.09
		c0.03,0.01,0.07,0.02,0.1,0.03c-0.01-0.02-0.03-0.04-0.04-0.06c-0.07-0.09-0.14-0.17-0.22-0.25c0,0,0,0,0,0c0,0,0,0,0,0l0,0
		c0,0,0,0,0,0c0,0,0,0,0,0c0,0,0,0,0,0c-0.04-0.04-0.08-0.08-0.12-0.12c0.01,0.01,0.01,0.01,0.02,0.02
		c-0.46-0.45-2.02-1.71-2.46-2.11c-0.08-0.07-0.15-0.13-0.22-0.2C9.85,8.64,9.8,8.52,9.89,8.42c0.1-0.11,0.27-0.08,0.44-0.07
		c0.12,0.01,0.23,0.03,0.35,0.06c0.24,0.05,0.47,0.12,0.7,0.17c1.04,0.26,1.32,0.34,1.32,0.34c0.52,0.14,0.82,0.27,1.06,0.36
		C13.73,9.19,13.69,9.08,13.66,9c-0.01-0.02-0.01-0.02,0,0c0,0,0,0,0,0c-0.36-0.84-1.12-1.89-1.68-2.61l0,0
		c-0.01-0.02-0.03-0.04-0.04-0.06c0.01,0.01,0.01,0.01,0.02,0.02c-0.02-0.02-0.04-0.05-0.05-0.07c0,0.01,0.01,0.01,0.01,0.02
		c-0.1-0.13-0.21-0.26-0.31-0.4c-0.05-0.06-0.1-0.12-0.15-0.19c-0.02-0.03-0.05-0.06-0.07-0.08c-0.02-0.03-0.05-0.06-0.06-0.1
		c-0.01-0.03-0.01-0.06,0-0.1c0.01-0.07,0.08-0.14,0.16-0.14c0.05,0,0.09,0.01,0.13,0.03c0.03,0.01,0.06,0.03,0.09,0.05
		c0.05,0.03,0.1,0.06,0.15,0.09c0.1,0.06,0.21,0.13,0.31,0.19c0.54,0.34,0.83,0.6,1.12,0.86c0.59,0.53,0.82,0.69,1.35,1.21
		c-0.01-0.01,0.01,0.01,0.02,0.02c0,0,0.01,0.01,0.01,0.01c0,0-0.2-1.04-0.3-1.76c0,0.01-0.02-0.13-0.02-0.14
		c0,0.01-0.01-0.05-0.01-0.07l0,0c-0.15-0.74-0.17-2.12-0.15-2.87c0-0.06,0.01-0.11,0.03-0.16c0.04-0.08,0.14-0.12,0.22-0.09
		c0.04,0.02,0.07,0.04,0.1,0.07c0.03,0.04,0.05,0.08,0.08,0.13c0.03,0.06,0.06,0.12,0.08,0.18c0.07,0.16,0.22,0.53,0.38,1
		c0.44,1.29,0.58,1.88,0.82,2.69c0.06,0.19,0.12,0.38,0.17,0.57c0.01-0.04,0.02-0.07,0.03-0.11c0.04-0.14,0.15-0.46,0.24-0.66
		c0.17-0.36,0.24-0.47,0.36-0.64c0.25-0.36,0.59-0.75,0.99-1.13c0.3-0.28,0.76-0.61,1.11-0.84c0.09-0.06,0.18-0.12,0.29-0.13
		c0.09-0.01,0.2,0.06,0.22,0.18c0.02,0.11-0.05,0.25-0.1,0.35c-0.18,0.4-0.31,0.54-0.66,1.27c-0.44,0.94-0.6,1.27-0.6,1.27
		c-0.03,0.06-0.26,0.58-0.23,0.51c-0.24,0.6-0.4,1.06-0.62,1.68c0.26-0.22,0.56-0.46,0.87-0.61c0.58-0.3,1.03-0.4,1.36-0.48
		c0.18-0.04,0.34-0.07,0.53-0.11c0.11-0.02,0.23-0.05,0.33,0.01c0.08,0.04,0.13,0.12,0.14,0.21c0.01,0.2-0.17,0.39-0.32,0.52
		c-0.7,0.65-1.3,1.28-2.24,2.49c0,0-0.01,0.02-0.02,0.02c0,0-0.05,0.07-0.06,0.08c0,0-0.01,0.01-0.01,0.01
		c-0.15,0.21-0.3,0.42-0.44,0.65c0.15-0.06,0.3-0.12,0.45-0.17c0.34-0.11,0.69-0.22,1.05-0.26c0,0,0,0,0,0c0,0,0,0,0,0
		c0,0,0.28-0.04,0.51-0.05c0.53-0.04,1.01,0.07,1.46,0.19c-0.09-0.03,0.07,0.02,0.17,0.05c0.06,0.02,0.19,0.06,0.24,0.09
		c0.13,0.09,0.17,0.23,0.1,0.36c-0.06,0.12-0.2,0.18-0.32,0.23c-0.09,0.04-0.9,0.27-0.96,0.28c0,0-0.62,0.17-0.62,0.17l0,0
		c0,0-1.18,0.34-1.18,0.34s0,0,0,0c0,0,0,0,0,0c0,0,0,0,0,0c0,0,0,0,0,0c0,0,0,0,0,0c-0.16,0.05-0.33,0.09-0.49,0.15
		c-0.12,0.05-0.24,0.11-0.36,0.18c-0.1,0.06-0.2,0.13-0.3,0.2c-0.04,0.04-0.09,0.08-0.13,0.12c-0.06,0.06-0.11,0.12-0.16,0.18
		c-0.04,0.06-0.08,0.12-0.12,0.18c-0.05,0.08-0.09,0.16-0.12,0.25c-0.08,0.21-0.15,0.42-0.23,0.63c-0.02,0.05-0.04,0.1-0.06,0.14
		c-0.02,0.04-0.04,0.08-0.07,0.11c-0.05,0.05-0.1,0.09-0.16,0.12c-0.03,0.02-0.06,0.03-0.1,0.04
		C15.79,15.39,15.73,15.39,15.67,15.38z"/>
	<path class="st2" d="M15.22,29.22c-0.58-0.15-0.82-0.35-1.14-0.66l0.01,0.01c-0.28-0.27-0.55-0.58-0.86-0.98
		c-0.17-0.22-0.34-0.45-0.48-0.69c-0.12-0.2-0.23-0.44-0.34-0.74c-0.42-1.14-0.76-3.4-0.76-3.53l0,0l0,0c0-0.03-0.01-0.06-0.01-0.09
		c0.01,0.02,0.01,0.04,0.01,0.03c-0.14-1.02-0.2-2.16-0.2-3.1l0,0.01c0-0.05,0-0.09,0-0.14l0,0.02c0-1.63,0.24-3.3,1.32-4.49
		c0.4-0.44,0.86-0.66,1.37-0.82c0.29-0.09,0.57-0.15,0.87-0.19c0.06-0.01,0.81-0.14,1.05-0.17c0.7-0.11,1.45-0.23,2.3-0.12
		c1.37,0.19,2.38,0.59,3.01,3.07c0.17,0.65,0.29,1.47,0.38,2.14c0,0.02,0,0.01,0,0.03c0.01,0.04,0,0.03,0.01,0.06
		c0.07,0.49,0.13,1.05,0.18,1.56c0.06,0.61,0.1,1.07,0.16,1.54l0.02,0.14c0.15,1.29,0.35,2.95,0.2,4.03l0,0
		c-0.25,1.68-0.78,2.11-1.84,2.47c-0.57,0.2-1.05,0.34-1.62,0.45C18,29.23,16.18,29.47,15.22,29.22z"/>
	<path class="st3" d="M13.28,14.45c-0.06-0.38-0.02-0.18,0.03,0.19c0,0,0.04,0.31,0.04,0.31c0,0.01,0,0.02,0,0.03c0,0,0,0,0-0.01
		c0,0.01,0,0,0.02,0.14c0,0,0.81,7.04,0.81,7.05l0,0c0.02,0.12,0.33,2.55,0.39,3.46c0.07,1.01,0.03,1.29,0.25,3.03
		c0,0,0,0.02,0,0.03c0.01,0.06,0.01,0.05,0.01,0.04c0,0.02,0.01,0.06,0.01,0.1c0,0.01,0.01,0.05,0.01,0.07c0,0.01,0,0.01,0,0.02
		c0.01,0.07,0.02,0.14,0.03,0.21c-0.1-0.04-0.2-0.08-0.29-0.13c-0.05-0.03-0.09-0.05-0.13-0.09c-0.05-0.4-0.1-0.8-0.14-1.2
		c-0.16-1.67-0.05-1.57-0.25-3.28c0,0-0.27-2.21-0.27-2.21c0,0-0.03-0.22-0.03-0.24c0,0-0.03-0.22-0.03-0.22c0,0-0.74-6.66-0.76-6.8
		c-0.01-0.08-0.02-0.16-0.03-0.24C13.06,14.61,13.17,14.53,13.28,14.45z"/>
	<path class="st3" d="M16.17,13.67c0,0,0.85,7.13,1.34,13.83c0.04,0.58,0.1,1.16,0.17,1.74c-0.14,0.02-0.28,0.03-0.41,0.04
		c-0.11-0.96-0.17-2.02-0.2-2.42c-0.22-3.28-0.44-5.83-1-10.93c-0.05-0.45-0.1-0.91-0.15-1.36c-0.03-0.28-0.05-0.57-0.08-0.85
		c0.08-0.01,0.16-0.03,0.24-0.04C16.11,13.67,16.14,13.67,16.17,13.67z"/>
	<path class="st3" d="M18.92,13.66c0.05,0.42,0.1,0.85,0.14,1.28c0.09,0.86,0.19,1.72,0.26,2.59c0.08,0.85,0.16,1.7,0.25,2.55
		c0.58,5.7,0.34,3.22,1.13,8.46c-0.07,0.03-0.32,0.11-0.41,0.14c-0.03-0.22-0.14-0.89-0.23-1.46c-0.39-2.56-0.57-2.94-1.09-8.99
		c-0.07-0.85-0.15-1.71-0.23-2.56c-0.06-0.69-0.13-1.38-0.19-2.08C18.68,13.61,18.8,13.63,18.92,13.66z"/>
	<path class="st3" d="M20.87,15.21c0.06,0.12,0.12,0.25,0.18,0.38c-0.74,0.06-1.48,0.1-2.22,0.14c-2.66,0.13-1.4,0.05-4.59,0.29
		c-1.15,0.09-1.6,0.18-2.29,0.22c0.02-0.06,0.12-0.3,0.16-0.36c0,0,1.13-0.14,3.4-0.32c0.39-0.03,0.77-0.06,1.16-0.09
		c0.39-0.02,0.78-0.04,1.18-0.06c0.36-0.02,0.73-0.04,1.09-0.06C19.62,15.3,20.24,15.27,20.87,15.21z"/>
	<path class="st3" d="M21.72,18.4c0.4,0-0.34,0.01-0.86,0.01c-0.76,0.01-1.52,0.04-2.28,0.06c-5.52,0.13-2.36,0.07-7.24,0.39
		c0.17-0.02,0.12,0.05,0.15-0.34c0,0,0.65-0.05,1.19-0.1c2.19-0.19,1.92-0.23,4.5-0.3c0.74-0.02,1.48-0.04,2.21-0.06
		c0.97-0.04,2.13-0.06,2.26-0.05c0.01,0.04,0.01,0.07,0.02,0.11C21.69,18.21,21.7,18.31,21.72,18.4z"/>
	<path class="st3" d="M22.04,21.19c0.01,0.13,0.03,0.25,0.04,0.38c-0.28,0.02-0.56,0.04-0.84,0.06c-2.64,0.19-5.83,0.56-9.66,0.24
		c-0.01-0.11-0.02-0.22-0.03-0.33C17,21.83,18.76,21.36,22.04,21.19z"/>
	<path class="st3" d="M22.34,24.07c0.05,0.73,0.32,0.17-2.52,0.54c-4.24,0.56-5.58,0.55-7.67,0.64c-0.03-0.1-0.05-0.21-0.08-0.32
		c0,0,2.53-0.13,3.4-0.22C20.2,24.26,20.05,24.05,22.34,24.07z"/>
	<path class="st3" d="M22.24,26.66c-0.03,0.14-0.08,0.3-0.13,0.44c-0.63,0.1-1.82,0.18-2.49,0.24c-2.33,0.21-2.72,0.36-6.15,0.54
		c-0.08-0.09-0.16-0.19-0.24-0.29l-0.02-0.02c0,0-0.01-0.01-0.01-0.02c0.02,0,0.03,0,0.05,0c2.73-0.19,8.31-0.79,8.57-0.83
		C21.85,26.72,22.12,26.68,22.24,26.66z"/>
</g>
</svg>
