<?xml version="1.0" encoding="utf-8"?>
<!-- Generator: Adobe Illustrator 28.3.0, SVG Export Plug-In . SVG Version: 6.00 Build 0)  -->
<svg version="1.1" id="圖層_1" xmlns="http://www.w3.org/2000/svg" xmlns:xlink="http://www.w3.org/1999/xlink" x="0px" y="0px"
	 viewBox="0 0 32 32" style="enable-background:new 0 0 32 32;" xml:space="preserve">
<style type="text/css">
	.st0{fill:#DFDFDF;}
	.st1{fill:#FE9700;}
	.st2{fill:#020202;}
</style>
<g>
	<path d="M1.06,16.05c0-3.3,0-6.6,0-9.91c0-2.47,1.62-4.47,4.03-4.98c0.33-0.07,0.66-0.1,0.99-0.1c6.65,0,13.29,0,19.94,0
		c2.82,0,5.04,2.21,5.04,5.03c0.01,6.65,0.01,13.29,0,19.94c0,2.82-2.22,5.03-5.04,5.03c-6.64,0.01-13.27,0.01-19.91,0
		c-2.85,0-5.05-2.21-5.05-5.08C1.06,22.67,1.06,19.36,1.06,16.05z M23.06,15.06c1.91,0,3.81,0,5.72,0.01c0.23,0,0.29-0.05,0.29-0.29
		c-0.01-2.88,0-5.77-0.01-8.65c0-1.75-1.31-3.06-3.06-3.06c-2.88-0.01-5.77,0-8.65-0.01c-0.23,0-0.29,0.05-0.29,0.29
		c0.01,3.81,0.01,7.62,0,11.44c0,0.23,0.05,0.29,0.29,0.29C19.25,15.06,21.16,15.06,23.06,15.06z M15.06,9.09
		c0-1.92,0-3.83,0.01-5.75c0-0.23-0.05-0.29-0.29-0.29c-2.88,0.01-5.77,0-8.65,0.01c-1.75,0-3.06,1.31-3.06,3.06
		c-0.01,2.88,0,5.77-0.01,8.65c0,0.23,0.05,0.29,0.29,0.29c3.81-0.01,7.62-0.01,11.44,0c0.23,0,0.29-0.05,0.29-0.29
		C15.06,12.88,15.06,10.99,15.06,9.09z M23.1,17.06c-1.92,0-3.83,0-5.75-0.01c-0.23,0-0.29,0.05-0.29,0.29
		c0.01,3.81,0.01,7.62,0,11.43c0,0.23,0.05,0.29,0.29,0.29c2.88-0.01,5.77,0,8.65-0.01c1.75,0,3.06-1.31,3.06-3.06
		c0.01-2.88,0-5.77,0.01-8.65c0-0.23-0.05-0.29-0.29-0.29C26.89,17.07,24.99,17.06,23.1,17.06z M9.09,17.06
		c-1.92,0-3.83,0-5.75-0.01c-0.23,0-0.29,0.05-0.29,0.29c0.01,2.87,0,5.75,0.01,8.62c0,1.79,1.3,3.09,3.09,3.09
		c2.87,0,5.75,0,8.62,0.01c0.23,0,0.29-0.05,0.29-0.29c-0.01-3.81-0.01-7.62,0-11.44c0-0.23-0.05-0.29-0.29-0.29
		C12.89,17.07,10.99,17.06,9.09,17.06z"/>
	<path class="st0" d="M23.06,15.06c-1.91,0-3.81,0-5.72,0.01c-0.23,0-0.29-0.06-0.29-0.29c0.01-3.81,0.01-7.62,0-11.44
		c0-0.23,0.06-0.29,0.29-0.29c2.88,0.01,5.77,0,8.65,0.01c1.75,0,3.06,1.31,3.06,3.06c0.01,2.88,0,5.77,0.01,8.65
		c0,0.23-0.05,0.29-0.29,0.29C26.87,15.06,24.97,15.06,23.06,15.06z M23.06,10.06c0.64,0,1.29,0,1.93,0c0.61,0,1.06-0.42,1.06-0.99
		c0.01-0.58-0.44-1.01-1.07-1.01c-1.29,0-2.58,0-3.87,0c-0.61,0-1.06,0.42-1.06,0.98c-0.01,0.58,0.44,1.01,1.07,1.01
		C21.77,10.07,22.42,10.06,23.06,10.06z"/>
	<path class="st0" d="M15.06,9.09c0,1.9,0,3.79,0.01,5.69c0,0.23-0.06,0.29-0.29,0.29c-3.81-0.01-7.62-0.01-11.44,0
		c-0.23,0-0.29-0.06-0.29-0.29c0.01-2.88,0-5.77,0.01-8.65c0-1.75,1.31-3.06,3.06-3.06c2.88-0.01,5.77,0,8.65-0.01
		c0.23,0,0.29,0.06,0.29,0.29C15.06,5.26,15.06,7.18,15.06,9.09z M10.66,10.06c0.14,0,0.27,0,0.41,0c0.56-0.02,0.99-0.45,0.99-1
		c0-0.54-0.43-0.98-0.99-1c-0.26-0.01-0.52-0.02-0.78,0c-0.2,0.02-0.25-0.06-0.23-0.25c0.02-0.24,0.01-0.48,0-0.72
		c-0.01-0.6-0.44-1.05-1.01-1.04C8.49,6.07,8.07,6.51,8.06,7.1C8.06,7.41,8.17,7.83,8.01,8C7.83,8.2,7.41,8.05,7.09,8.06
		c-0.59,0.02-1.02,0.44-1.03,1c0,0.56,0.44,0.99,1.02,1c0.26,0.01,0.52,0.01,0.78,0c0.17-0.01,0.21,0.05,0.2,0.21
		c-0.01,0.27-0.01,0.54,0,0.81c0.02,0.52,0.41,0.94,0.92,0.98c0.49,0.04,0.96-0.29,1.05-0.78c0.04-0.2,0.03-0.41,0.03-0.62
		C10.06,10.06,10.06,10.06,10.66,10.06z"/>
	<path class="st1" d="M23.1,17.06c1.89,0,3.79,0,5.68-0.01c0.24,0,0.29,0.06,0.29,0.29c-0.01,2.88,0,5.77-0.01,8.65
		c0,1.75-1.31,3.06-3.06,3.06c-2.88,0.01-5.77,0-8.65,0.01c-0.24,0-0.29-0.06-0.29-0.29c0.01-3.81,0.01-7.62,0-11.43
		c0-0.24,0.06-0.29,0.29-0.29C19.26,17.07,21.18,17.06,23.1,17.06z M23.05,22.06c0.66,0,1.31,0,1.97,0c0.6-0.01,1.05-0.45,1.04-1.01
		c-0.01-0.55-0.45-0.98-1.04-0.98c-1.3,0-2.6,0-3.91,0c-0.61,0-1.05,0.43-1.05,1c0,0.57,0.45,1,1.05,1
		C21.76,22.07,22.41,22.06,23.05,22.06z M23.05,24.06c-0.65,0-1.29,0-1.94,0c-0.61,0-1.05,0.43-1.05,1c0,0.57,0.45,0.99,1.06,1
		c1.29,0,2.58,0,3.87,0c0.61,0,1.06-0.42,1.07-0.99c0.01-0.58-0.44-1.01-1.07-1.01C24.34,24.06,23.7,24.06,23.05,24.06z"/>
	<path class="st0" d="M9.09,17.06c1.9,0,3.79,0,5.69-0.01c0.23,0,0.29,0.06,0.29,0.29c-0.01,3.81-0.01,7.62,0,11.44
		c0,0.23-0.06,0.29-0.29,0.29c-2.87-0.01-5.75,0-8.62-0.01c-1.79,0-3.09-1.3-3.09-3.09c0-2.87,0-5.75-0.01-8.62
		c0-0.23,0.06-0.29,0.29-0.29C5.26,17.07,7.18,17.06,9.09,17.06z M5.94,25.2c0.02,0.39,0.2,0.72,0.59,0.89
		c0.4,0.18,0.78,0.11,1.1-0.19c0.42-0.39,0.82-0.8,1.21-1.22c0.16-0.17,0.26-0.2,0.43-0.01c0.37,0.4,0.76,0.77,1.14,1.15
		c0.46,0.45,1.06,0.47,1.47,0.06c0.41-0.41,0.39-1.01-0.06-1.47c-0.39-0.39-0.77-0.79-1.17-1.17c-0.14-0.13-0.17-0.21-0.01-0.36
		c0.41-0.39,0.8-0.79,1.2-1.19c0.44-0.45,0.46-1.04,0.06-1.45c-0.41-0.42-1.02-0.4-1.47,0.04c-0.39,0.39-0.79,0.77-1.17,1.17
		c-0.15,0.15-0.23,0.17-0.39,0.01c-0.38-0.4-0.77-0.79-1.17-1.17c-0.46-0.45-1.06-0.47-1.47-0.06c-0.41,0.41-0.39,1.02,0.06,1.47
		c0.38,0.39,0.76,0.77,1.15,1.15c0.16,0.15,0.19,0.24,0.01,0.41c-0.41,0.38-0.8,0.79-1.2,1.19C6.06,24.65,5.95,24.89,5.94,25.2z"/>
	<path class="st2" d="M23.06,10.06c-0.64,0-1.29,0-1.93,0c-0.62,0-1.08-0.44-1.07-1.01c0.01-0.57,0.45-0.98,1.06-0.98
		c1.29,0,2.58,0,3.87,0c0.62,0,1.08,0.43,1.07,1.01c-0.01,0.57-0.45,0.98-1.06,0.99C24.35,10.07,23.71,10.06,23.06,10.06z"/>
	<path class="st2" d="M10.66,10.06c-0.6,0-0.6,0-0.6,0.59c0,0.21,0.01,0.42-0.03,0.62c-0.1,0.49-0.56,0.82-1.05,0.78
		c-0.5-0.04-0.9-0.46-0.92-0.98c-0.01-0.27-0.01-0.54,0-0.81c0.01-0.16-0.03-0.22-0.2-0.21c-0.26,0.01-0.52,0.01-0.78,0
		c-0.58-0.01-1.02-0.45-1.02-1c0-0.56,0.44-0.98,1.03-1C7.41,8.05,7.83,8.2,8.01,8c0.16-0.17,0.04-0.59,0.05-0.9
		c0.01-0.59,0.43-1.03,0.99-1.03c0.57-0.01,1,0.44,1.01,1.04c0,0.24,0.01,0.48,0,0.72c-0.01,0.18,0.03,0.26,0.23,0.25
		c0.26-0.02,0.52-0.01,0.78,0c0.56,0.02,0.99,0.46,0.99,1c0,0.54-0.43,0.98-0.99,1C10.93,10.07,10.8,10.06,10.66,10.06z"/>
	<path d="M23.05,22.06c-0.65,0-1.29,0-1.94,0c-0.61,0-1.05-0.43-1.05-1c0-0.57,0.44-1,1.05-1c1.3,0,2.6,0,3.91,0
		c0.59,0,1.03,0.43,1.04,0.98c0.01,0.57-0.44,1.01-1.04,1.01C24.37,22.07,23.71,22.06,23.05,22.06z"/>
	<path d="M23.05,24.06c0.65,0,1.29,0,1.94,0c0.63,0,1.08,0.43,1.07,1.01c-0.01,0.57-0.45,0.99-1.07,0.99c-1.29,0-2.58,0-3.87,0
		c-0.61,0-1.06-0.43-1.06-1c0-0.57,0.44-1,1.05-1C21.76,24.06,22.4,24.06,23.05,24.06z"/>
	<path class="st2" d="M5.94,25.2c0.01-0.31,0.12-0.55,0.32-0.75c0.4-0.4,0.79-0.81,1.2-1.19c0.18-0.17,0.15-0.26-0.01-0.41
		c-0.39-0.37-0.77-0.76-1.15-1.15c-0.45-0.46-0.48-1.06-0.06-1.47c0.41-0.41,1.02-0.39,1.47,0.06c0.39,0.39,0.79,0.77,1.17,1.17
		c0.16,0.17,0.24,0.15,0.39-0.01c0.38-0.4,0.77-0.79,1.17-1.17c0.45-0.45,1.06-0.46,1.47-0.04c0.4,0.41,0.38,1.01-0.06,1.45
		c-0.39,0.4-0.79,0.8-1.2,1.19c-0.16,0.15-0.13,0.23,0.01,0.36c0.4,0.38,0.79,0.78,1.17,1.17c0.45,0.46,0.47,1.06,0.06,1.47
		c-0.41,0.41-1.02,0.39-1.47-0.06c-0.39-0.38-0.78-0.75-1.14-1.15C9.1,24.49,9,24.52,8.84,24.69c-0.39,0.42-0.8,0.82-1.21,1.22
		c-0.32,0.3-0.7,0.37-1.1,0.19C6.14,25.92,5.96,25.59,5.94,25.2z"/>
</g>
</svg>
