<?xml version="1.0" encoding="utf-8"?>
<!-- Generator: Adobe Illustrator 28.3.0, SVG Export Plug-In . SVG Version: 6.00 Build 0)  -->
<svg version="1.1" id="圖層_1" xmlns="http://www.w3.org/2000/svg" xmlns:xlink="http://www.w3.org/1999/xlink" x="0px" y="0px"
	 viewBox="0 0 32 32" style="enable-background:new 0 0 32 32;" xml:space="preserve">
<style type="text/css">
	.st0{display:none;}
	.st1{display:inline;fill:#FDE257;}
	.st2{display:inline;}
	.st3{fill:#5A812B;}
	.st4{fill:#FFB339;}
	.st5{fill:#FFF1B6;}
	.st6{fill:#DAFB54;}
	.st7{fill:#292929;}
</style>
<g id="圖層_2_00000041253781910399683960000007413873956583210168_" class="st0">
	<polygon class="st1" points="32,32 32,0 0,32 	"/>
	<polygon class="st1" points="0,32 32,0 0,0 	"/>
	<g class="st2">
		<path class="st3" d="M12.63,11.02c0.01,0.01,0.01,0.01,0.02,0.02c0,0,0,0,0,0C12.64,11.03,12.64,11.03,12.63,11.02z"/>
		<path class="st3" d="M19.25,11.36c-0.23,0.01-0.51,0.05-0.51,0.05c-0.36,0.04-0.71,0.15-1.05,0.26c-0.15,0.05-0.3,0.11-0.45,0.17
			c0.14-0.23,0.29-0.44,0.44-0.65l0.01-0.01c0.01-0.01,0.06-0.08,0.06-0.08c0.01,0,0.02-0.02,0.02-0.02
			c0.94-1.21,1.54-1.84,2.24-2.49c0.15-0.13,0.33-0.32,0.32-0.52c-0.01-0.09-0.06-0.17-0.14-0.21c-0.1-0.06-0.22-0.03-0.33-0.01
			c-0.19,0.04-0.35,0.07-0.53,0.11C19,8.04,18.55,8.14,17.97,8.44c-0.31,0.15-0.61,0.39-0.87,0.61c0.22-0.62,0.38-1.08,0.62-1.68
			c-0.03,0.07,0.2-0.45,0.23-0.51c0,0,0.16-0.33,0.6-1.27c0.35-0.73,0.48-0.87,0.66-1.27c0.05-0.1,0.12-0.24,0.1-0.35
			c-0.02-0.12-0.13-0.19-0.22-0.18c-0.11,0.01-0.2,0.07-0.29,0.13c-0.35,0.23-0.81,0.56-1.11,0.84c-0.4,0.38-0.74,0.77-0.99,1.13
			c-0.12,0.17-0.19,0.28-0.36,0.64c-0.09,0.2-0.2,0.52-0.24,0.66c-0.01,0.04-0.02,0.07-0.03,0.11c-0.05-0.19-0.11-0.38-0.17-0.57
			c-0.24-0.81-0.38-1.4-0.82-2.69c-0.16-0.47-0.31-0.84-0.38-1c-0.02-0.06-0.05-0.12-0.08-0.18c-0.03-0.05-0.05-0.09-0.08-0.13
			c-0.03-0.03-0.06-0.05-0.1-0.07c-0.08-0.03-0.18,0.01-0.22,0.09c-0.02,0.05-0.03,0.1-0.03,0.16c-0.02,0.75,0,2.13,0.15,2.87
			c0,0.02,0.01,0.08,0.01,0.07c0,0.01,0.02,0.15,0.02,0.14c0.1,0.72,0.3,1.76,0.3,1.76l-0.01-0.01c-0.01-0.01-0.03-0.03-0.02-0.02
			c-0.53-0.52-0.76-0.68-1.35-1.21C13,6.25,12.71,5.99,12.17,5.65c-0.1-0.06-0.21-0.13-0.31-0.19c-0.05-0.03-0.1-0.06-0.15-0.09
			c-0.03-0.02-0.06-0.04-0.09-0.05c-0.04-0.02-0.08-0.03-0.13-0.03c-0.08,0-0.15,0.07-0.16,0.14c-0.01,0.04-0.01,0.07,0,0.1
			c0.01,0.04,0.04,0.07,0.06,0.1c0.02,0.02,0.05,0.05,0.07,0.08c0.05,0.07,0.1,0.13,0.15,0.19c0.1,0.14,0.21,0.27,0.31,0.4
			c0-0.01-0.01-0.01-0.01-0.02c0.01,0.02,0.03,0.05,0.05,0.07c-0.01-0.01-0.01-0.01-0.02-0.02c0.01,0.02,0.03,0.04,0.04,0.06
			C12.54,7.11,13.3,8.16,13.66,9c0.03,0.08,0.07,0.19,0.1,0.28c-0.24-0.09-0.54-0.22-1.06-0.36c0,0-0.28-0.08-1.32-0.34
			c-0.23-0.05-0.46-0.12-0.7-0.17c-0.12-0.03-0.23-0.05-0.35-0.06c-0.17-0.01-0.34-0.04-0.44,0.07C9.8,8.52,9.85,8.64,9.97,8.73
			c0.07,0.07,0.14,0.13,0.22,0.2c0.44,0.4,2,1.66,2.46,2.11c-0.01-0.01-0.01-0.01-0.02-0.02c0.01,0.01,0.01,0.01,0.02,0.02
			c0,0,0,0,0,0c0.03,0.03,0.07,0.07,0.1,0.1c0.08,0.08,0.15,0.16,0.22,0.25c0.01,0.02,0.03,0.04,0.04,0.06
			c-0.03-0.01-0.07-0.02-0.1-0.03c-0.13-0.03-0.26-0.06-0.39-0.09c-0.28-0.06-0.58-0.1-0.87-0.14c-0.47-0.05-0.94-0.1-1.41-0.04
			c-0.21,0.02-0.59,0.08-0.63,0.29c-0.04,0.22,0.21,0.28,0.44,0.38c0.11,0.05,0.22,0.09,0.33,0.14c0,0-0.01-0.01-0.02-0.01
			c0.14,0.06,0.27,0.11,0.41,0.17c0.01,0,0.13,0.05,0.13,0.05c0.01,0,0.01,0,0.01,0c0,0.01,0.01,0.01,0.01,0.01h0.01
			c0,0,1.31,0.47,2.76,1.45c0.01,0.01,0.01,0.01,0.02,0.02c0.05,0.04,0.09,0.07,0.14,0.11c-0.01,0-0.01-0.01-0.02-0.01
			c0.1,0.08,0.21,0.16,0.31,0.24c0.05,0.09,0.11,0.18,0.17,0.26c0.09,0.12,0.17,0.23,0.26,0.34c0.1,0.13,0.22,0.26,0.35,0.37
			c0.07,0.06,0.16,0.13,0.24,0.19c0.08,0.06,0.17,0.13,0.27,0.17c0.08,0.03,0.16,0.05,0.24,0.06c0.06,0.01,0.12,0.01,0.17-0.01
			c0.04-0.01,0.07-0.02,0.1-0.04c0.06-0.03,0.11-0.07,0.16-0.12c0.03-0.03,0.05-0.07,0.07-0.11c0.02-0.04,0.04-0.09,0.06-0.14
			c0.08-0.21,0.15-0.42,0.23-0.63c0.03-0.09,0.07-0.17,0.12-0.25c0.04-0.06,0.08-0.12,0.12-0.18c0.05-0.06,0.1-0.12,0.16-0.18
			c0.04-0.04,0.09-0.08,0.13-0.12c0.1-0.07,0.2-0.14,0.3-0.2c0.12-0.07,0.24-0.13,0.36-0.18c0.16-0.06,0.33-0.1,0.49-0.15l1.11-0.32
			l1.25-1.25C20.11,11.41,19.7,11.33,19.25,11.36z"/>
		<path class="st3" d="M20.88,11.6c-0.1-0.03-0.26-0.08-0.17-0.05c-0.07-0.02-0.14-0.03-0.21-0.05l-1.25,1.25l0.07-0.02l0.62-0.17
			c0.06-0.01,0.87-0.24,0.96-0.28c0.12-0.05,0.26-0.11,0.32-0.23c0.07-0.13,0.03-0.27-0.1-0.36C21.07,11.66,20.94,11.62,20.88,11.6z
			"/>
		<path class="st4" d="M22.1,21.97c-0.06-0.47-0.1-0.93-0.16-1.54c-0.05-0.51-0.11-1.07-0.18-1.56c-0.01-0.03,0-0.02-0.01-0.06
			c0-0.02,0-0.01,0-0.03c-0.09-0.67-0.21-1.49-0.38-2.14c-0.62-2.44-1.61-2.87-2.95-3.06l-6.94,6.94c0.03,0.68,0.08,1.38,0.17,2.05
			c0,0.01,0-0.01-0.01-0.03c0,0.03,0.01,0.06,0.01,0.09c0,0.13,0.34,2.39,0.76,3.53c0.11,0.3,0.22,0.54,0.34,0.74
			c0.14,0.24,0.31,0.47,0.48,0.69c0.31,0.4,0.58,0.71,0.85,0.97c0.32,0.31,0.56,0.51,1.14,0.66c0.96,0.25,2.78,0.01,3.64-0.16
			c0.57-0.11,1.05-0.25,1.62-0.45c1.06-0.36,1.59-0.79,1.84-2.47c0.15-1.08-0.05-2.74-0.2-4.03L22.1,21.97z"/>
		<polygon class="st4" points="14.09,28.57 14.08,28.56 14.08,28.56 		"/>
		<path class="st4" d="M18.36,13.57c-0.85-0.11-1.6,0.01-2.3,0.12c-0.24,0.03-0.99,0.16-1.05,0.17c-0.3,0.04-0.58,0.1-0.87,0.19
			c-0.51,0.16-0.97,0.38-1.37,0.82c-1.08,1.19-1.32,2.86-1.32,4.49c0,0.04,0,0.07,0,0.11c0,0.33,0.01,0.69,0.03,1.05l6.94-6.94
			C18.4,13.58,18.38,13.57,18.36,13.57z"/>
		<path class="st5" d="M14.85,28.89c0-0.02-0.01-0.06-0.01-0.07c0-0.04-0.01-0.08-0.01-0.1c0,0.01,0,0.02-0.01-0.04
			c0-0.01,0-0.03,0-0.03c-0.22-1.74-0.18-2.02-0.25-3.03c-0.06-0.91-0.37-3.34-0.39-3.46c0-0.01-0.23-2.02-0.45-3.89l-0.34,0.34
			c0.18,1.61,0.35,3.14,0.35,3.14l0.03,0.22c0,0.02,0.03,0.24,0.03,0.24l0.27,2.21c0.2,1.71,0.09,1.61,0.25,3.28
			c0.04,0.4,0.09,0.8,0.14,1.2c0.04,0.04,0.08,0.06,0.13,0.09c0.09,0.05,0.19,0.09,0.29,0.13c-0.01-0.07-0.02-0.14-0.03-0.21
			C14.85,28.9,14.85,28.9,14.85,28.89z"/>
		<path class="st5" d="M13.37,15.11c-0.02-0.14-0.02-0.13-0.02-0.14c0,0,0,0.01,0,0.01c0,0,0-0.01,0-0.01c0-0.01,0-0.01,0-0.02
			l-0.04-0.31c-0.05-0.37-0.09-0.57-0.03-0.19c-0.11,0.08-0.22,0.16-0.33,0.26c0.01,0.08,0.02,0.16,0.03,0.24
			c0.01,0.07,0.22,1.91,0.41,3.66l0.34-0.34C13.55,16.64,13.37,15.11,13.37,15.11z"/>
		<path class="st5" d="M16.17,13.67c-0.03,0-0.06,0-0.09,0.01c-0.08,0.01-0.16,0.03-0.24,0.04c0.03,0.28,0.05,0.57,0.08,0.85
			c0.05,0.45,0.1,0.91,0.15,1.36l0.32-0.32C16.26,14.4,16.17,13.67,16.17,13.67z"/>
		<path class="st5" d="M16.39,15.61l-0.32,0.32c0.56,5.1,0.78,7.65,1,10.93c0.03,0.4,0.09,1.46,0.2,2.42
			c0.13-0.01,0.27-0.02,0.41-0.04c-0.07-0.58-0.13-1.16-0.17-1.74C17.18,22.94,16.68,18.18,16.39,15.61z"/>
		<path class="st5" d="M19.32,17.53c-0.07-0.87-0.17-1.73-0.26-2.59c-0.04-0.43-0.09-0.86-0.14-1.28c-0.12-0.03-0.24-0.05-0.37-0.07
			c0.06,0.7,0.13,1.39,0.19,2.08c0.08,0.85,0.16,1.71,0.23,2.56c0.52,6.05,0.7,6.43,1.09,8.99c0.09,0.57,0.2,1.24,0.23,1.46
			c0.09-0.03,0.34-0.11,0.41-0.14c-0.79-5.24-0.55-2.76-1.13-8.46C19.48,19.23,19.4,18.38,19.32,17.53z"/>
		<path class="st5" d="M18.94,15.35c-0.36,0.02-0.73,0.04-1.09,0.06c-0.4,0.02-0.79,0.04-1.18,0.06c-0.05,0-0.1,0.01-0.15,0.01
			l-0.4,0.4c0.9-0.07,0.84-0.06,2.71-0.15c0.74-0.04,1.48-0.08,2.22-0.14c-0.06-0.13-0.12-0.26-0.18-0.38
			C20.24,15.27,19.62,15.3,18.94,15.35z"/>
		<path class="st5" d="M15.51,15.56c-2.27,0.18-3.4,0.32-3.4,0.32c-0.04,0.06-0.14,0.3-0.16,0.36c0.69-0.04,1.14-0.13,2.29-0.22
			c0.95-0.07,1.5-0.11,1.88-0.14l0.4-0.4C16.18,15.51,15.85,15.53,15.51,15.56z"/>
		<path class="st5" d="M12.68,18.42c-0.54,0.05-1.19,0.1-1.19,0.1c-0.03,0.39,0.02,0.32-0.15,0.34c0.87-0.06,1.48-0.1,1.94-0.14
			l0.39-0.39C13.4,18.36,13.08,18.39,12.68,18.42z"/>
		<path class="st5" d="M21.67,18.12c-0.01-0.04-0.01-0.07-0.02-0.11c-0.13-0.01-1.29,0.01-2.26,0.05c-0.73,0.02-1.47,0.04-2.21,0.06
			c-2.11,0.06-2.31,0.09-3.51,0.21l-0.39,0.39c2.08-0.17,0.77-0.14,5.3-0.25c0.76-0.02,1.52-0.05,2.28-0.06
			c0.52,0,1.26-0.01,0.86-0.01C21.7,18.31,21.69,18.21,21.67,18.12z"/>
		<path class="st5" d="M11.55,21.54c0.01,0.11,0.02,0.22,0.03,0.33c3.83,0.32,7.02-0.05,9.66-0.24c0.28-0.02,0.56-0.04,0.84-0.06
			c-0.01-0.13-0.03-0.25-0.04-0.38C18.76,21.36,17,21.83,11.55,21.54z"/>
		<path class="st5" d="M15.47,24.71c-0.87,0.09-3.4,0.22-3.4,0.22c0.03,0.11,0.05,0.22,0.08,0.32c2.09-0.09,3.43-0.08,7.67-0.64
			c2.84-0.37,2.57,0.19,2.52-0.54C20.05,24.05,20.2,24.26,15.47,24.71z"/>
		<path class="st5" d="M13.25,27.55c-0.02,0-0.03,0-0.05,0c0,0.01,0.01,0.02,0.01,0.02l0.02,0.02c0.08,0.1,0.16,0.2,0.24,0.29
			c3.43-0.18,3.82-0.33,6.15-0.54c0.67-0.06,1.86-0.14,2.49-0.24c0.05-0.14,0.1-0.3,0.13-0.44c-0.12,0.02-0.39,0.06-0.42,0.06
			C21.56,26.76,15.98,27.36,13.25,27.55z"/>
	</g>
</g>
<g id="圖層_3" class="st0">
	<g class="st2">
		<polygon class="st6" points="0,32 32,0 0,0 		"/>
		<polygon class="st7" points="32,32 32,0 0,32 		"/>
	</g>
</g>
<polygon class="st7" points="32,32 32,0 0,32 "/>
<polygon class="st6" points="0,32 32,0 0,0 "/>
</svg>
